<svg version="1.2" xmlns="http://www.w3.org/2000/svg" viewBox="0 0 370 408" width="370" height="408"><style>.a{fill:#fff}.b{fill:#ffe81f}</style><path fill-rule="evenodd" class="a" d="m269.5 408h-169c-38.5 0-70-31.5-70-70v-238.5h-30.5v-40h89v-9c0-27.5 22.5-50 50-50h92c27.5 0 50 22.5 50 50v9h89v40h-30.5v238c0 39-31.5 70-70 70.5zm-140.5-348.5h111.5v-9c0-5.5-4.5-10-10-10h-91.5c-5.5 0-10 4.5-10 10zm-28.5 308.5h169c16.5 0 30-13.5 30-30v-238.5h-229v238c0 16.5 13.5 30 30 30.5z"/><path class="b" d="m234.3 154.1l28.3 28.3-126.9 127-28.3-28.3z"/><path class="b" d="m107.4 182.4l28.3-28.3 126.9 127-28.3 28.3z"/></svg>