<svg version="1.2" xmlns="http://www.w3.org/2000/svg" viewBox="0 0 100 100" width="100" height="100"><style>.a{fill:#fff}</style><path fill-rule="evenodd" class="a" d="m45.9 0c-0.6 0-1.2 0.2-1.6 0.7-0.5 0.4-0.7 1-0.7 1.6v41.3h-41.3c-0.6 0-1.2 0.2-1.6 0.7-0.5 0.4-0.7 1-0.7 1.6v8.2c0 0.6 0.2 1.2 0.7 1.6 0.4 0.5 1 0.7 1.6 0.7h41.3v41.3c0 0.6 0.2 1.2 0.7 1.6 0.4 0.5 1 0.7 1.6 0.7h8.2c0.6 0 1.2-0.2 1.6-0.7 0.5-0.4 0.7-1 0.7-1.6v-41.3h41.3c0.6 0 1.2-0.2 1.6-0.7 0.5-0.4 0.7-1 0.7-1.6v-8.2c0-0.6-0.2-1.2-0.7-1.6-0.4-0.5-1-0.7-1.6-0.7h-41.3v-41.3c0-0.6-0.2-1.2-0.7-1.6-0.4-0.5-1-0.7-1.6-0.7z"/></svg>