<svg version="1.2" xmlns="http://www.w3.org/2000/svg" viewBox="0 0 441 345" width="441" height="345"><style>.a{fill:#fff}.b{fill:#ffe81f}</style><path fill-rule="evenodd" class="a" d="m374 251.5c-1.5 1.5-2.5 4-1.5 6l20 54c0.5 1.5 1.5 2.5 3.5 2.5h29q3 0 3 3v23.5q0 3-3 3h-49c-2.5 0-4-1.5-5-3.5l-26-69c-0.5-1.5-2-2.5-3.5-2.5h-103.5c-1.5 0-2.5 1-2.5 2.5v69.5q0 3-3 3h-24c-2 0-3-1.5-3-3v-69q0-3-3-3h-90c-2 0-4 1.5-4.5 3l-26.5 70.5c-0.5 1.5-2 2.5-3.5 2.5h-50c-1.5 0-2.5-1-2.5-2.5v-24c0-3 1.5-4 4-4h28c2 0 3.5-1 4-2.5l17.5-46.5c0.5-1.5 0-3-1-4l-75-61.5c-4-3-3.5-8.5 0-11.5 26.5-20.5 53.5-41.5 81-62 4.5-3.5 3-12 4-16 30.5-146 230.5-147 265.5-1.5 1 5-0.5 14 5 18q40.5 30.8 79.5 61.5c4 3 4 9 0 12zm-257-136c0 1.5 1 3 2.5 3h202.5c1.5 0 3-2 2.5-3.5-12-50.5-50-84-102-86-49.5-1.5-96.5 35-105.5 86.5zm276 81.5c2-1.5 2-4 0-5.5l-53.5-41.5c-1-0.5-1.5-1-2.5-1h-234c-0.5 0-1.5 0.5-2 1l-54 42c-2 1-2 4 0 5.5l50 40.5c1 0.5 1.5 1 2.5 1h240c1 0 2-0.5 2.5-1z"/><path class="b" d="m145.5 193.5c0 8-6.5 15-14.5 15-8 0-15-6.5-15-15 0-8 6.5-14.5 15-14.5 8 0 14.5 6.5 14.5 14.5z"/><path class="b" d="m235.5 193.5c0 8-6.5 15-15 15-8 0-15-6.5-15-15 0-8.5 6.5-15 15-15 8.5 0.5 15 7 15 15z"/><path class="b" d="m325.5 193.5c0 8-6.5 15-15 15-8 0-14.5-6.5-14.5-15 0-8 6.5-14.5 14.5-14.5 8.5 0 15 6.5 15 14.5z"/></svg>