<?xml version="1.0" encoding="utf-8"?>
<!-- Generator: Adobe Illustrator 25.4.1, SVG Export Plug-In . SVG Version: 6.00 Build 0)  -->
<svg version="1.1" id="Layer_1" xmlns="http://www.w3.org/2000/svg" xmlns:xlink="http://www.w3.org/1999/xlink" x="0px" y="0px"
	 width="500px" height="500px" viewBox="0 0 500 500" style="enable-background:new 0 0 500 500;" xml:space="preserve">
<style type="text/css">
	.st0{fill:#010101;}
</style>
<g transform="matrix(.417,0,0,.417,0,0)">
</g>
<g>
	<path class="st0" d="M273.7,23.7c0,13.1-10.6,23.7-23.7,23.7s-23.7-10.6-23.7-23.7S236.9,0,250,0S273.7,10.6,273.7,23.7"/>
	<path class="st0" d="M400.4,23.7c0,13.1-10.6,23.7-23.7,23.7s-23.7-10.6-23.7-23.7S363.5,0,376.7,0S400.4,10.6,400.4,23.7"/>
	<path class="st0" d="M147.1,23.7c0,13.1-10.6,23.7-23.7,23.7S99.6,36.9,99.6,23.7S110.2,0,123.3,0S147.1,10.6,147.1,23.7"/>
	<path class="st0" d="M276.5,500V223.3l115,115l37.5-37.5L268.8,140.5c-5-5-11.7-7.8-18.8-7.8c-7,0-13.8,2.8-18.8,7.8L71,300.7
		l37.5,37.5l115-115V500H276.5z"/>
</g>
</svg>
